<?xml version="1.0" encoding="UTF-8"?>
<!-- Generated by Pixelmator Pro 4.0 -->
<svg width="600" height="600" viewBox="0 0 600 600" xmlns="http://www.w3.org/2000/svg">
    <path id="Path" fill="#0f0f0f" stroke="none" d="M 590.523376 9.950317 C 577.506653 -3.067322 556.400024 -3.067322 543.383301 9.950317 L 300.236664 253.09668 L 57.091675 9.950317 C 44.074341 -3.067322 22.968666 -3.067322 9.95134 9.950317 C -3.066338 22.967651 -3.066338 44.073364 9.95134 57.090698 L 253.09668 300.236664 L 9.952003 543.380005 C -3.065666 556.400024 -3.065666 577.503357 9.952003 590.523376 C 22.96933 603.539978 44.074997 603.539978 57.092346 590.523376 L 300.236664 347.376648 L 543.383301 590.523376 C 556.400024 603.539978 577.506653 603.539978 590.523376 590.523376 C 603.539978 577.503357 603.539978 556.400024 590.523376 543.383301 L 347.376648 300.236664 L 590.523376 57.090698 C 603.539978 44.073364 603.539978 22.967651 590.523376 9.950317 Z"/>
</svg>
