<svg height="534" viewBox="0 0 534 534" width="534" xmlns="http://www.w3.org/2000/svg"><path d="m133.666656 267c0 36.81897-29.847671 66.666656-66.666656 66.666656s-66.666672-29.847686-66.666672-66.666656 29.847687-66.666656 66.666672-66.666656 66.666656 29.847686 66.666656 66.666656z"/><path d="m333.666656 267c0 36.81897-29.847686 66.666656-66.666656 66.666656s-66.666656-29.847686-66.666656-66.666656 29.847686-66.666656 66.666656-66.666656 66.666656 29.847686 66.666656 66.666656z"/><path d="m533.666687 267c0 36.820007-29.84668 66.666656-66.666687 66.666656s-66.666687-29.846649-66.666687-66.666656 29.84668-66.666656 66.666687-66.666656 66.666687 29.846649 66.666687 66.666656z"/></svg>