<?xml version="1.0" encoding="UTF-8"?>
<!-- Generated by Pixelmator Pro 4.0 -->
<svg width="700" height="700" viewBox="0 0 700 700" xmlns="http://www.w3.org/2000/svg">
    <path id="Path" fill="#000000" stroke="none" d="M 549 267 L 482.333313 267 C 463.923828 267 449 281.923828 449 300.333344 C 449 318.742828 463.923828 333.666656 482.333313 333.666656 L 549 333.666656 L 549 633.666687 L 149 633.666687 L 149 333.666656 L 215.666656 333.666656 C 234.076172 333.666656 249 318.742828 249 300.333344 C 249 281.923828 234.076172 267 215.666656 267 L 149 267 C 112.181015 267 82.333328 296.847687 82.333328 333.666656 L 82.333328 633.666687 C 82.333328 670.485657 112.181015 700.333313 149 700.333313 L 549 700.333313 C 585.819031 700.333313 615.666687 670.485657 615.666687 633.666687 L 615.666687 333.666656 C 615.666687 296.847687 585.819031 267 549 267 Z"/>
    <path id="path1" fill="#000000" stroke="none" d="M 239.333344 190.666687 L 315.666656 114 L 315.666656 467 C 315.666656 485.409515 330.590485 500.333344 349 500.333344 C 367.409515 500.333344 382.333344 485.409515 382.333344 467 L 382.333344 114 L 458.666656 190.666687 C 464.925537 196.977112 473.445435 200.526611 482.333313 200.526611 C 491.221252 200.526611 499.74115 196.977112 506 190.666687 C 512.310425 184.407776 515.859924 175.887939 515.859924 167 C 515.859924 158.112061 512.310425 149.592224 506 143.333313 L 372.666656 10 L 372.666656 10 C 369.426636 7.055664 365.706146 4.688049 361.666656 3 C 353.598694 -0.565918 344.401306 -0.565918 336.333344 3 C 332.293854 4.688049 328.573364 7.055664 325.333344 10 L 325.333344 10 L 192 143.333313 C 178.92926 156.404053 178.92926 177.595947 192 190.666687 C 205.07074 203.737427 226.262604 203.737427 239.333344 190.666687 Z"/>
</svg>
